<?xml version="1.0" standalone="no"?>
<!DOCTYPE svg PUBLIC "-//W3C//DTD SVG 20010904//EN"
 "http://www.w3.org/TR/2001/REC-SVG-20010904/DTD/svg10.dtd">
<svg version="1.0" xmlns="http://www.w3.org/2000/svg"
 width="311.000000pt" height="138.000000pt" viewBox="0 0 311.000000 138.000000"
 preserveAspectRatio="xMidYMid meet">

<g transform="translate(0.000000,138.000000) scale(0.100000,-0.100000)"
fill="#000000" stroke="none">
<path d="M460 957 c0 -51 13 -67 55 -67 25 0 33 -6 42 -30 9 -25 17 -30 43
-30 24 0 35 7 48 30 13 23 24 30 49 30 22 0 36 6 43 19 13 25 13 91 0 91 -5 0
-10 -20 -10 -45 l0 -45 -45 0 c-41 0 -45 -2 -45 -25 0 -29 -28 -47 -53 -34 -9
6 -17 21 -17 34 0 23 -4 25 -45 25 l-45 0 0 45 c0 25 -4 45 -10 45 -5 0 -10
-19 -10 -43z"/>
<path d="M1542 818 c-6 -18 -13 -46 -17 -62 l-6 -30 19 24 20 25 -5 -50 c-7
-70 -22 -125 -34 -125 -6 0 -8 -4 -4 -9 3 -5 1 -12 -5 -16 -15 -9 -12 -58 4
-80 13 -18 15 -16 21 30 9 69 12 75 34 75 20 0 25 -14 33 -90 2 -18 10 -26 26
-28 23 -4 23 -3 17 70 -7 75 -34 271 -38 274 -7 5 -46 24 -51 24 -2 0 -9 -15
-14 -32z m68 -155 c0 -36 -11 -53 -37 -53 -24 0 -25 1 -18 52 9 67 26 86 42
50 7 -15 12 -37 13 -49z"/>
<path d="M2190 803 c-7 -27 -14 -56 -17 -67 -3 -12 -1 -16 6 -12 6 4 11 13 11
21 0 8 4 16 9 20 5 3 9 -8 9 -25 -1 -17 2 -33 5 -37 4 -3 7 1 7 9 0 34 26 25
38 -13 16 -51 2 -89 -33 -89 -14 0 -25 5 -25 10 0 6 -8 2 -18 -7 -11 -10 -17
-22 -15 -26 3 -4 1 -13 -4 -20 -5 -7 -8 -18 -7 -24 1 -7 2 -22 3 -33 2 -35 31
-24 31 13 0 52 11 77 31 77 22 0 25 -6 34 -72 5 -40 10 -48 27 -48 20 0 21 3
14 93 -9 116 -30 245 -42 256 -5 5 -19 12 -30 15 -19 6 -23 0 -34 -41z"/>
<path d="M2330 820 c6 -11 20 -20 32 -20 20 0 21 -2 13 -155 -7 -153 -6 -155
14 -155 20 0 21 4 21 160 l0 159 37 10 c20 6 40 8 45 5 4 -3 8 0 8 5 0 7 -33
11 -90 11 -88 0 -90 -1 -80 -20z"/>
<path d="M2748 820 c-29 -22 -72 -115 -64 -136 10 -25 48 -32 90 -17 51 18 63
6 41 -41 -20 -41 -99 -116 -124 -117 -10 0 -7 -4 8 -10 33 -13 57 -3 107 43
48 44 73 100 55 122 -22 26 -68 39 -101 28 -27 -10 -30 -9 -30 9 0 30 37 97
61 110 17 9 19 13 8 20 -20 12 -23 11 -51 -11z"/>
<path d="M1900 816 c0 -8 -3 -23 -6 -33 -6 -16 -5 -16 8 1 15 19 16 18 23 -14
5 -24 3 -36 -7 -44 -29 -21 -38 -56 -38 -141 0 -75 2 -86 16 -81 9 3 20 6 25
6 5 0 9 39 9 87 0 88 6 97 26 40 15 -45 56 -50 78 -10 l15 28 2 -40 c1 -22 1
-59 0 -82 -3 -46 0 -49 30 -33 17 10 19 22 19 113 0 127 -10 209 -23 204 -6
-2 -18 -25 -26 -52 -9 -26 -26 -54 -37 -62 -20 -13 -22 -12 -34 34 -13 47 -13
47 -20 18 -6 -25 -8 -27 -15 -12 -4 9 -5 27 -2 39 4 14 0 26 -11 34 -22 17
-32 17 -32 0z"/>
<path d="M2506 788 c-8 -57 9 -287 22 -300 14 -14 75 -2 104 21 26 21 17 42
-10 23 -48 -34 -54 -30 -60 43 -4 55 -4 56 27 68 41 15 40 29 -1 25 l-33 -3
-5 55 c-6 51 -7 53 -17 30 -11 -23 -12 -21 -12 22 -1 28 4 48 12 51 7 4 6 6
-4 6 -12 1 -18 -11 -23 -41z"/>
<path d="M2555 820 c3 -5 8 -10 11 -10 2 0 4 5 4 10 0 6 -5 10 -11 10 -5 0 -7
-4 -4 -10z"/>
<path d="M1104 795 c-29 -44 -7 -252 31 -293 16 -18 60 0 76 30 7 13 15 56 19
96 l6 72 -36 -1 c-19 -1 -27 -3 -17 -6 17 -4 18 -12 12 -66 -4 -34 -11 -71
-15 -82 -7 -19 -7 -19 -18 0 -32 62 -40 217 -11 251 11 14 14 13 29 -6 10 -13
25 -21 36 -18 18 3 18 4 -4 26 -31 31 -86 30 -108 -3z"/>
<path d="M1374 812 c-6 -4 -16 -17 -23 -30 -7 -12 -16 -20 -20 -17 -15 9 -23
-27 -28 -125 -5 -113 7 -146 51 -143 34 3 38 6 41 36 2 13 8 32 13 43 6 10 13
31 16 46 4 15 13 34 22 43 20 19 15 109 -7 130 -19 17 -51 26 -65 17z m36
-110 c0 -38 -6 -90 -14 -115 -8 -26 -11 -47 -8 -47 4 0 -1 -5 -11 -11 -14 -9
-22 -7 -32 8 -15 19 -20 53 -7 53 4 0 8 17 9 38 1 20 11 55 22 77 12 21 21 45
21 52 0 7 5 13 10 13 6 0 10 -29 10 -68z"/>
<path d="M270 801 c0 -6 20 -11 45 -11 45 0 45 0 45 -35 0 -27 -4 -35 -18 -35
-25 0 -42 -20 -42 -50 0 -30 17 -50 42 -50 14 0 18 -8 18 -35 0 -35 0 -35 -45
-35 -25 0 -45 -5 -45 -11 0 -6 21 -9 53 -7 l52 3 3 46 c3 44 2 47 -26 52 -31
6 -45 27 -35 53 3 8 19 18 35 21 28 5 29 8 26 52 l-3 46 -52 3 c-32 2 -53 -1
-53 -7z"/>
<path d="M466 794 c-3 -9 -6 -29 -6 -45 0 -21 -5 -29 -18 -29 -25 0 -42 -20
-42 -50 0 -30 17 -50 42 -50 13 0 18 -8 18 -29 0 -53 8 -61 61 -61 45 0 49 2
49 25 0 13 8 28 17 34 25 13 53 -5 53 -34 0 -23 4 -25 49 -25 53 0 61 8 61 61
0 21 5 29 18 29 25 0 42 20 42 50 0 30 -17 50 -42 50 -13 0 -18 8 -18 29 0 53
-8 61 -61 61 -45 0 -49 -2 -49 -25 0 -13 -8 -28 -17 -34 -25 -13 -53 5 -53 34
0 23 -4 25 -49 25 -35 0 -51 -4 -55 -16z m89 -26 c22 -48 87 -50 99 -3 5 21
12 25 41 25 34 0 35 -1 35 -39 0 -34 3 -39 29 -44 16 -3 31 -14 35 -23 8 -21
-20 -54 -46 -54 -14 0 -18 -8 -18 -40 0 -38 -1 -40 -32 -40 -26 0 -37 6 -50
30 -12 21 -25 30 -42 30 -27 0 -56 -23 -56 -46 0 -9 -11 -14 -35 -14 -34 0
-35 1 -35 39 0 34 -3 39 -29 44 -51 10 -51 64 0 74 26 5 29 10 29 44 0 37 1
39 33 39 23 0 35 -6 42 -22z"/>
<path d="M837 803 c-4 -3 -7 -26 -7 -50 0 -35 3 -43 18 -43 26 0 54 -33 46
-54 -4 -9 -20 -20 -36 -23 -28 -5 -29 -8 -26 -52 l3 -46 48 -3 c28 -2 47 1 47
7 0 6 -18 11 -40 11 -39 0 -40 1 -40 35 0 27 4 35 18 35 25 0 42 20 42 50 0
30 -17 50 -42 50 -14 0 -18 8 -18 35 0 34 1 35 40 35 22 0 40 5 40 10 0 11
-83 14 -93 3z"/>
<path d="M1722 766 c-26 -38 -47 -181 -34 -231 11 -41 70 -55 127 -30 50 21
28 33 -26 15 -61 -20 -64 -13 -53 142 6 73 10 134 9 135 0 1 -11 -13 -23 -31z"/>
<path d="M2202 665 c0 -16 2 -22 5 -12 2 9 2 23 0 30 -3 6 -5 -1 -5 -18z"/>
<path d="M566 494 c-9 -8 -16 -22 -16 -30 0 -9 -11 -14 -33 -14 -18 0 -38 -5
-45 -12 -14 -14 -16 -98 -2 -98 6 0 10 20 10 45 l0 45 45 0 c41 0 45 2 45 24
0 13 6 29 14 35 22 18 56 -3 56 -34 0 -23 4 -25 45 -25 l45 0 0 -45 c0 -25 5
-45 10 -45 13 0 13 66 0 91 -7 13 -21 19 -45 19 -26 0 -35 5 -41 23 -4 12 -12
25 -18 29 -19 13 -54 9 -70 -8z"/>
</g>
</svg>
