<?xml version="1.0" standalone="no"?>
<!DOCTYPE svg PUBLIC "-//W3C//DTD SVG 20010904//EN"
 "http://www.w3.org/TR/2001/REC-SVG-20010904/DTD/svg10.dtd">
<svg version="1.0" xmlns="http://www.w3.org/2000/svg"
 width="311.000000pt" height="138.000000pt" viewBox="0 0 311.000000 138.000000"
 preserveAspectRatio="xMidYMid meet">

<g transform="translate(0.000000,138.000000) scale(0.100000,-0.100000)"
fill="#000000" stroke="none">
<path d="M0 690 l0 -690 1555 0 1555 0 0 690 0 690 -1555 0 -1555 0 0 -690z
m482 268 c3 -43 3 -43 45 -46 37 -3 42 -6 45 -30 2 -21 9 -28 31 -30 23 -3 28
1 33 27 6 27 11 30 48 33 41 3 41 3 44 46 2 23 8 42 13 42 6 0 9 -22 7 -52
l-3 -53 -40 -3 c-34 -2 -43 -8 -52 -31 -5 -15 -19 -30 -31 -33 -29 -8 -66 13
-70 39 -3 18 -11 22 -45 25 l-42 3 -3 53 c-2 30 1 52 7 52 5 0 11 -19 13 -42z
m1112 -121 c20 -15 42 -125 52 -264 l7 -93 -25 0 c-24 0 -26 5 -33 55 -5 44
-10 55 -25 55 -21 0 -30 -19 -30 -65 0 -35 -15 -54 -31 -38 -15 15 -17 73 -3
87 7 8 10 16 7 19 -3 3 1 13 10 21 8 9 18 39 22 68 3 29 9 62 12 73 5 17 4 18
-10 7 -9 -7 -19 -27 -22 -43 -4 -17 -9 -28 -12 -25 -5 5 13 93 28 134 10 25
27 28 53 9z m655 -4 c21 -18 35 -89 56 -291 l6 -63 -28 3 c-23 2 -28 8 -31 33
-5 58 -12 75 -31 75 -16 0 -21 -10 -26 -55 -5 -37 -12 -55 -21 -55 -8 0 -14
11 -15 28 0 24 -1 25 -9 7 -7 -16 -9 -17 -9 -3 -1 9 3 19 9 23 5 3 6 13 3 21
-3 9 4 28 16 44 19 26 47 157 36 168 -6 6 -35 -68 -36 -92 0 -11 -3 -15 -6 -8
-3 7 0 36 7 65 28 123 37 134 79 100z m291 3 c19 -3 49 -10 65 -15 30 -8 30
-8 -12 -12 -23 -2 -39 -1 -37 3 3 5 -4 8 -15 8 -18 0 -21 -6 -20 -47 0 -43 1
-46 11 -23 l11 25 7 -25 c5 -14 8 -39 9 -55 1 -29 3 -31 36 -27 46 5 45 -10
-1 -27 l-36 -13 7 -57 c4 -31 8 -58 10 -60 2 -1 14 4 27 13 12 9 32 16 43 16
17 -1 16 -4 -13 -30 -23 -21 -43 -30 -67 -30 -53 0 -59 21 -60 196 l0 150 -38
-7 c-21 -3 -40 -8 -42 -10 -2 -2 -7 -75 -11 -162 -6 -140 -9 -157 -24 -157
-23 0 -32 24 -25 64 8 50 14 216 8 232 -3 8 -13 14 -23 14 -19 0 -34 26 -24
42 6 10 142 6 214 -6z m268 -5 c10 -6 7 -12 -12 -25 -27 -17 -66 -83 -66 -111
0 -12 4 -14 19 -5 26 13 54 13 86 -2 55 -25 39 -87 -41 -157 -46 -40 -66 -47
-99 -35 -13 5 -8 11 21 28 46 26 104 99 104 131 0 24 0 24 -43 9 -53 -18 -97
-6 -97 26 0 32 28 92 57 123 27 28 48 33 71 18z m-878 -12 c0 -5 4 -8 10 -4 5
3 8 -10 6 -32 -5 -52 8 -68 14 -18 l6 40 13 -57 c14 -57 14 -57 36 -40 13 9
29 37 37 62 8 26 20 45 28 45 12 0 15 -28 18 -157 1 -95 -1 -158 -7 -158 -5 0
-16 -3 -25 -6 -14 -5 -16 6 -17 77 -1 71 -3 80 -12 57 -9 -23 -17 -28 -43 -28
-30 0 -34 3 -40 35 -12 66 -24 47 -24 -38 0 -85 -5 -97 -41 -97 -5 0 -9 52 -8
118 0 67 4 109 8 97 8 -19 8 -19 15 3 4 12 11 22 15 22 4 0 6 13 3 30 -5 33
-21 31 -23 -3 -1 -18 -2 -19 -6 -4 -7 28 6 67 22 67 8 0 15 -5 15 -11z m-713
-21 c42 -40 17 -55 -31 -17 -14 11 -30 18 -35 15 -23 -14 -16 -177 10 -241
l12 -30 7 25 c5 14 8 51 9 83 1 48 -2 57 -16 58 -10 1 9 5 42 9 60 8 88 4 48
-6 -17 -5 -21 -16 -26 -70 -4 -35 -13 -77 -21 -93 -17 -32 -60 -48 -82 -30
-37 31 -63 247 -36 297 18 31 86 31 119 0z m200 11 c38 -14 43 -25 43 -99 0
-37 -4 -60 -8 -52 -11 16 -32 -27 -32 -63 0 -14 -5 -25 -11 -25 -5 0 -7 -4 -4
-10 3 -5 2 -10 -3 -10 -5 0 -8 -10 -7 -22 2 -27 -11 -38 -46 -38 -44 0 -63 73
-49 188 8 61 14 77 42 107 37 39 37 39 75 24z m-1039 -56 c3 -50 2 -52 -25
-55 -22 -2 -28 -8 -28 -28 0 -20 6 -26 28 -28 27 -3 28 -5 25 -55 l-3 -52 -52
-3 c-32 -2 -53 1 -53 7 0 6 20 11 45 11 43 0 45 1 45 30 0 23 -6 33 -23 39
-56 21 -59 84 -6 103 23 8 29 16 29 39 0 28 -2 29 -45 29 -25 0 -45 5 -45 11
0 6 21 9 53 7 l52 -3 3 -52z m196 27 c4 -24 11 -30 31 -30 20 0 27 6 32 30 6
30 7 31 57 28 l51 -3 3 -37 c3 -30 8 -39 26 -44 52 -13 53 -84 1 -104 -18 -7
-24 -18 -27 -47 l-3 -38 -51 -3 c-50 -3 -51 -2 -58 28 -5 27 -9 31 -33 28 -22
-2 -29 -9 -31 -31 -3 -27 -5 -28 -55 -25 l-52 3 -3 38 c-3 29 -9 40 -27 47
-52 20 -53 91 -1 104 21 5 26 12 26 40 0 43 4 46 60 46 45 0 48 -2 54 -30z
m366 20 c0 -5 -20 -10 -45 -10 -43 0 -45 -1 -45 -30 0 -23 6 -33 24 -40 53
-20 53 -91 0 -104 -19 -5 -24 -13 -24 -36 0 -29 2 -30 45 -30 25 0 45 -5 45
-11 0 -6 -21 -9 -52 -7 l-53 3 -3 52 c-3 50 -2 52 25 55 22 2 28 8 28 28 0 20
-6 26 -27 28 -26 3 -28 6 -28 51 0 26 3 51 7 54 10 11 103 8 103 -3z m802
-147 l-5 -146 24 7 c52 15 89 18 89 8 0 -31 -141 -40 -162 -10 -12 17 -3 184
12 223 9 24 37 65 45 65 1 0 -1 -66 -3 -147z m-1094 -155 c6 -6 12 -19 12 -29
0 -14 9 -19 43 -21 l42 -3 3 -52 c2 -31 -1 -53 -7 -53 -5 0 -11 19 -13 43 -3
42 -3 42 -44 45 -37 3 -42 6 -48 33 -5 26 -10 30 -33 27 -22 -2 -29 -9 -31
-30 -3 -24 -8 -27 -45 -30 -42 -3 -42 -3 -45 -45 -2 -24 -8 -43 -13 -43 -6 0
-9 22 -7 53 l3 52 43 3 c33 3 42 7 42 22 0 41 60 58 98 28z"/>
<path d="M1572 713 c-6 -15 -13 -45 -17 -65 -5 -33 -3 -38 13 -38 31 0 45 25
37 67 -9 58 -20 70 -33 36z"/>
<path d="M2241 725 c-1 -15 -4 -17 -10 -7 -5 9 -11 -8 -18 -47 -9 -56 -8 -61
9 -61 10 0 18 5 18 11 0 5 5 7 10 4 6 -3 10 4 9 17 0 34 -16 106 -18 83z"/>
<path d="M1393 753 c-3 -10 -14 -37 -25 -61 -12 -25 -18 -55 -16 -72 3 -17 1
-30 -4 -30 -9 0 -11 -31 -2 -54 3 -9 10 -16 14 -16 17 0 41 87 47 167 6 78 0
105 -14 66z"/>
<path d="M480 746 c0 -41 -2 -45 -27 -48 -22 -2 -28 -8 -28 -28 0 -20 6 -26
28 -28 25 -3 27 -7 27 -48 0 -43 0 -44 34 -44 28 0 35 4 38 22 4 27 41 48 70
40 12 -3 26 -18 32 -34 9 -24 16 -28 41 -26 28 3 30 6 33 45 3 37 6 42 30 45
21 2 27 8 27 28 0 20 -6 26 -27 28 -24 3 -27 8 -30 45 -3 39 -5 42 -35 45 -27
3 -33 0 -33 -16 0 -25 -24 -44 -55 -44 -31 0 -55 19 -55 43 0 15 -7 19 -35 19
-35 0 -35 0 -35 -44z"/>
</g>
</svg>
